<?xml version="1.0" encoding="UTF-8"?>
<svg xmlns="http://www.w3.org/2000/svg" width="900" height="680" viewBox="0 0 900 680" role="img" aria-label="Tea kettle">
  <defs>
    <linearGradient id="g" x1="0" x2="1" y1="0" y2="1">
      <stop stop-color="#eef3fb" offset="0"/>
      <stop stop-color="#ffe1d6" offset="1"/>
    </linearGradient>
    <filter id="shadow" x="-20%" y="-20%" width="140%" height="140%">
      <feDropShadow dx="0" dy="18" stdDeviation="24" flood-color="#17211d" flood-opacity=".20"/>
    </filter>
  </defs>
  <rect width="900" height="680" fill="url(#g)"/>
  <circle cx="760" cy="118" r="84" fill="#fff" opacity=".22"/>
  <circle cx="118" cy="565" r="118" fill="#fff" opacity=".18"/>
  <g filter="url(#shadow)">
      <rect x="334" y="262" width="236" height="198" rx="78" fill="#f7f8f8"/>
      <path d="M558 300c74 4 112 50 102 110-6 36-31 58-74 66" fill="none" stroke="#f7f8f8" stroke-width="38" stroke-linecap="round"/>
      <path d="M356 271c-56-26-89-26-126 0 36 33 75 52 125 57z" fill="#f7f8f8"/>
      <rect x="404" y="204" width="96" height="72" rx="36" fill="#545c69"/>
      <rect x="378" y="184" width="148" height="34" rx="17" fill="#545c69"/>
    </g>
  <rect x="52" y="54" width="286" height="58" rx="29" fill="#fff" opacity=".74"/>
  <text x="82" y="92" font-family="Arial, sans-serif" font-size="26" font-weight="700" fill="#4d5061">Tea kettle</text>
</svg>